<mxfile host="app.diagrams.net" modified="2020-12-18T17:25:47.434Z" agent="5.0 (Macintosh; Intel Mac OS X 10_15_6) AppleWebKit/605.1.15 (KHTML, like Gecko) Version/14.0.1 Safari/605.1.15" etag="seDBRdd3Wi2P5IKGpZgB" version="14.0.4" type="github">
  <diagram name="Page-1" id="c4acf3e9-155e-7222-9cf6-157b1a14988f">
    <mxGraphModel dx="2431" dy="1394" grid="1" gridSize="10" guides="1" tooltips="1" connect="1" arrows="1" fold="1" page="1" pageScale="1" pageWidth="1169" pageHeight="827" background="#ffffff" math="0" shadow="0">
      <root>
        <mxCell id="0" />
        <mxCell id="1" parent="0" />
        <mxCell id="JjzSYra-wFmh_ooPUgK7-45" value="" style="shape=datastore;whiteSpace=wrap;html=1;fillColor=#ffffff;fontSize=9;fontColor=#7EA6E0;opacity=80;align=center;" parent="1" vertex="1">
          <mxGeometry x="386" y="18" width="80" height="70" as="geometry" />
        </mxCell>
        <mxCell id="JjzSYra-wFmh_ooPUgK7-52" value="" style="shape=datastore;whiteSpace=wrap;html=1;fillColor=#ffffff;fontSize=9;fontColor=#7EA6E0;opacity=80;align=center;" parent="1" vertex="1">
          <mxGeometry x="525.75" y="18" width="80" height="70" as="geometry" />
        </mxCell>
        <mxCell id="JjzSYra-wFmh_ooPUgK7-53" value="" style="shape=datastore;whiteSpace=wrap;html=1;fillColor=#ffffff;fontSize=9;fontColor=#7EA6E0;opacity=80;align=center;" parent="1" vertex="1">
          <mxGeometry x="663.75" y="18" width="80" height="70" as="geometry" />
        </mxCell>
        <mxCell id="EH1okrl17HNzEjOL1Jwx-92" value="" style="rounded=0;whiteSpace=wrap;html=1;glass=1;fillColor=none;gradientColor=none;fontSize=8;fontColor=#000000;" parent="1" vertex="1">
          <mxGeometry x="160" y="160" width="700" height="620" as="geometry" />
        </mxCell>
        <mxCell id="EH1okrl17HNzEjOL1Jwx-88" value="" style="group" parent="1" vertex="1" connectable="0">
          <mxGeometry x="299" y="457" width="330" height="220" as="geometry" />
        </mxCell>
        <mxCell id="EH1okrl17HNzEjOL1Jwx-70" value="" style="group" parent="EH1okrl17HNzEjOL1Jwx-88" vertex="1" connectable="0">
          <mxGeometry width="320" height="200" as="geometry" />
        </mxCell>
        <mxCell id="EH1okrl17HNzEjOL1Jwx-67" value="" style="rounded=0;whiteSpace=wrap;html=1;glass=1;gradientColor=none;fontSize=9;fontColor=#67AB9F;fillColor=none;" parent="EH1okrl17HNzEjOL1Jwx-70" vertex="1">
          <mxGeometry width="320" height="200" as="geometry" />
        </mxCell>
        <mxCell id="EH1okrl17HNzEjOL1Jwx-69" value="" style="group" parent="EH1okrl17HNzEjOL1Jwx-70" vertex="1" connectable="0">
          <mxGeometry x="35" y="30" width="259" height="141" as="geometry" />
        </mxCell>
        <mxCell id="EH1okrl17HNzEjOL1Jwx-9" value="" style="rounded=0;whiteSpace=wrap;html=1;fillColor=none;" parent="EH1okrl17HNzEjOL1Jwx-69" vertex="1">
          <mxGeometry x="5" width="250" height="141" as="geometry" />
        </mxCell>
        <mxCell id="EH1okrl17HNzEjOL1Jwx-20" value="" style="endArrow=none;html=1;entryX=1;entryY=0.75;entryDx=0;entryDy=0;exitX=0;exitY=0.75;exitDx=0;exitDy=0;" parent="EH1okrl17HNzEjOL1Jwx-69" source="EH1okrl17HNzEjOL1Jwx-9" target="EH1okrl17HNzEjOL1Jwx-9" edge="1">
          <mxGeometry width="50" height="50" as="geometry">
            <mxPoint x="137.5" y="70" as="sourcePoint" />
            <mxPoint x="187.5" y="20" as="targetPoint" />
            <Array as="points">
              <mxPoint x="170" y="106" />
            </Array>
          </mxGeometry>
        </mxCell>
        <mxCell id="EH1okrl17HNzEjOL1Jwx-21" value="" style="endArrow=none;html=1;entryX=1;entryY=0.75;entryDx=0;entryDy=0;exitX=0;exitY=0.75;exitDx=0;exitDy=0;" parent="EH1okrl17HNzEjOL1Jwx-69" edge="1">
          <mxGeometry width="50" height="50" as="geometry">
            <mxPoint x="5" y="70.20999999999998" as="sourcePoint" />
            <mxPoint x="255" y="70.20999999999998" as="targetPoint" />
          </mxGeometry>
        </mxCell>
        <mxCell id="EH1okrl17HNzEjOL1Jwx-22" value="" style="endArrow=none;html=1;entryX=1;entryY=0.25;entryDx=0;entryDy=0;exitX=0;exitY=0.25;exitDx=0;exitDy=0;" parent="EH1okrl17HNzEjOL1Jwx-69" source="EH1okrl17HNzEjOL1Jwx-9" target="EH1okrl17HNzEjOL1Jwx-9" edge="1">
          <mxGeometry width="50" height="50" as="geometry">
            <mxPoint x="5" y="40.00000000000006" as="sourcePoint" />
            <mxPoint x="255" y="40.00000000000006" as="targetPoint" />
          </mxGeometry>
        </mxCell>
        <mxCell id="EH1okrl17HNzEjOL1Jwx-23" value="" style="endArrow=none;html=1;entryX=0.75;entryY=0;entryDx=0;entryDy=0;exitX=0.75;exitY=1;exitDx=0;exitDy=0;" parent="EH1okrl17HNzEjOL1Jwx-69" source="EH1okrl17HNzEjOL1Jwx-9" target="EH1okrl17HNzEjOL1Jwx-9" edge="1">
          <mxGeometry width="50" height="50" as="geometry">
            <mxPoint x="351" y="40" as="sourcePoint" />
            <mxPoint x="401" y="-10" as="targetPoint" />
          </mxGeometry>
        </mxCell>
        <mxCell id="EH1okrl17HNzEjOL1Jwx-24" value="" style="endArrow=none;html=1;exitX=0.75;exitY=1;exitDx=0;exitDy=0;" parent="EH1okrl17HNzEjOL1Jwx-69" target="EH1okrl17HNzEjOL1Jwx-9" edge="1">
          <mxGeometry width="50" height="50" as="geometry">
            <mxPoint x="131" y="141" as="sourcePoint" />
            <mxPoint x="131" as="targetPoint" />
          </mxGeometry>
        </mxCell>
        <mxCell id="EH1okrl17HNzEjOL1Jwx-25" value="" style="endArrow=none;html=1;entryX=0.5;entryY=0;entryDx=0;entryDy=0;exitX=0.5;exitY=1;exitDx=0;exitDy=0;" parent="EH1okrl17HNzEjOL1Jwx-69" source="EH1okrl17HNzEjOL1Jwx-9" target="EH1okrl17HNzEjOL1Jwx-9" edge="1">
          <mxGeometry width="50" height="50" as="geometry">
            <mxPoint x="202.5" y="151" as="sourcePoint" />
            <mxPoint x="202.5" y="10" as="targetPoint" />
          </mxGeometry>
        </mxCell>
        <mxCell id="EH1okrl17HNzEjOL1Jwx-26" value="" style="endArrow=none;html=1;entryX=0.25;entryY=0;entryDx=0;entryDy=0;exitX=0.25;exitY=1;exitDx=0;exitDy=0;" parent="EH1okrl17HNzEjOL1Jwx-69" source="EH1okrl17HNzEjOL1Jwx-9" target="EH1okrl17HNzEjOL1Jwx-9" edge="1">
          <mxGeometry width="50" height="50" as="geometry">
            <mxPoint x="140" y="151" as="sourcePoint" />
            <mxPoint x="140" y="10" as="targetPoint" />
          </mxGeometry>
        </mxCell>
        <mxCell id="EH1okrl17HNzEjOL1Jwx-27" value="" style="endArrow=none;html=1;entryX=0.25;entryY=0;entryDx=0;entryDy=0;exitX=0.25;exitY=1;exitDx=0;exitDy=0;" parent="EH1okrl17HNzEjOL1Jwx-69" edge="1">
          <mxGeometry width="50" height="50" as="geometry">
            <mxPoint x="98" y="141" as="sourcePoint" />
            <mxPoint x="98" as="targetPoint" />
          </mxGeometry>
        </mxCell>
        <mxCell id="EH1okrl17HNzEjOL1Jwx-28" value="" style="endArrow=none;html=1;entryX=0.25;entryY=0;entryDx=0;entryDy=0;exitX=0.25;exitY=1;exitDx=0;exitDy=0;" parent="EH1okrl17HNzEjOL1Jwx-69" edge="1">
          <mxGeometry width="50" height="50" as="geometry">
            <mxPoint x="36" y="141" as="sourcePoint" />
            <mxPoint x="36" as="targetPoint" />
          </mxGeometry>
        </mxCell>
        <mxCell id="EH1okrl17HNzEjOL1Jwx-31" value="" style="endArrow=none;html=1;entryX=0.25;entryY=0;entryDx=0;entryDy=0;exitX=0.25;exitY=1;exitDx=0;exitDy=0;" parent="EH1okrl17HNzEjOL1Jwx-69" edge="1">
          <mxGeometry width="50" height="50" as="geometry">
            <mxPoint x="160" y="141" as="sourcePoint" />
            <mxPoint x="160" as="targetPoint" />
          </mxGeometry>
        </mxCell>
        <mxCell id="EH1okrl17HNzEjOL1Jwx-32" value="" style="endArrow=none;html=1;entryX=0.25;entryY=0;entryDx=0;entryDy=0;exitX=0.25;exitY=1;exitDx=0;exitDy=0;" parent="EH1okrl17HNzEjOL1Jwx-69" edge="1">
          <mxGeometry width="50" height="50" as="geometry">
            <mxPoint x="221.71000000000004" y="141" as="sourcePoint" />
            <mxPoint x="221.71000000000004" as="targetPoint" />
          </mxGeometry>
        </mxCell>
        <mxCell id="EH1okrl17HNzEjOL1Jwx-33" value="$zero" style="text;html=1;strokeColor=none;fillColor=none;align=center;verticalAlign=middle;whiteSpace=wrap;rounded=0;fontSize=9;" parent="EH1okrl17HNzEjOL1Jwx-69" vertex="1">
          <mxGeometry y="6" width="40" height="20" as="geometry" />
        </mxCell>
        <mxCell id="EH1okrl17HNzEjOL1Jwx-34" value="&lt;font style=&quot;font-size: 12px&quot;&gt;$at&lt;/font&gt;" style="text;html=1;strokeColor=none;fillColor=none;align=center;verticalAlign=middle;whiteSpace=wrap;rounded=0;fontSize=9;" parent="EH1okrl17HNzEjOL1Jwx-69" vertex="1">
          <mxGeometry x="32" y="6" width="40" height="20" as="geometry" />
        </mxCell>
        <mxCell id="EH1okrl17HNzEjOL1Jwx-35" value="&lt;font style=&quot;font-size: 12px&quot;&gt;$v0&lt;/font&gt;" style="text;html=1;align=center;verticalAlign=middle;whiteSpace=wrap;rounded=0;fontSize=9;fontColor=#97D077;" parent="EH1okrl17HNzEjOL1Jwx-69" vertex="1">
          <mxGeometry x="61" y="6" width="40" height="20" as="geometry" />
        </mxCell>
        <mxCell id="EH1okrl17HNzEjOL1Jwx-36" value="&lt;font style=&quot;font-size: 12px&quot;&gt;$v1&lt;/font&gt;" style="text;html=1;align=center;verticalAlign=middle;whiteSpace=wrap;rounded=0;fontSize=9;fontColor=#97D077;" parent="EH1okrl17HNzEjOL1Jwx-69" vertex="1">
          <mxGeometry x="96" y="6" width="40" height="20" as="geometry" />
        </mxCell>
        <mxCell id="EH1okrl17HNzEjOL1Jwx-37" value="&lt;span style=&quot;font-size: 12px&quot;&gt;$a0&lt;/span&gt;" style="text;html=1;strokeColor=none;fillColor=none;align=center;verticalAlign=middle;whiteSpace=wrap;rounded=0;fontSize=9;fontColor=#7EA6E0;" parent="EH1okrl17HNzEjOL1Jwx-69" vertex="1">
          <mxGeometry x="126" y="6" width="40" height="20" as="geometry" />
        </mxCell>
        <mxCell id="EH1okrl17HNzEjOL1Jwx-38" value="&lt;span style=&quot;font-size: 12px&quot;&gt;$a1&lt;/span&gt;" style="text;html=1;strokeColor=none;fillColor=none;align=center;verticalAlign=middle;whiteSpace=wrap;rounded=0;fontSize=9;fontColor=#7EA6E0;" parent="EH1okrl17HNzEjOL1Jwx-69" vertex="1">
          <mxGeometry x="158" y="6" width="40" height="20" as="geometry" />
        </mxCell>
        <mxCell id="EH1okrl17HNzEjOL1Jwx-39" value="&lt;span style=&quot;font-size: 12px&quot;&gt;$a2&lt;/span&gt;" style="text;html=1;strokeColor=none;fillColor=none;align=center;verticalAlign=middle;whiteSpace=wrap;rounded=0;fontSize=9;fontColor=#7EA6E0;" parent="EH1okrl17HNzEjOL1Jwx-69" vertex="1">
          <mxGeometry x="186.5" y="6" width="40" height="20" as="geometry" />
        </mxCell>
        <mxCell id="EH1okrl17HNzEjOL1Jwx-40" value="&lt;span style=&quot;font-size: 12px&quot;&gt;$a3&lt;/span&gt;" style="text;html=1;strokeColor=none;fillColor=none;align=center;verticalAlign=middle;whiteSpace=wrap;rounded=0;fontSize=9;fontColor=#7EA6E0;" parent="EH1okrl17HNzEjOL1Jwx-69" vertex="1">
          <mxGeometry x="218" y="6" width="40" height="20" as="geometry" />
        </mxCell>
        <mxCell id="EH1okrl17HNzEjOL1Jwx-41" value="&lt;span style=&quot;font-size: 12px&quot;&gt;$t0&lt;/span&gt;" style="text;html=1;strokeColor=none;fillColor=none;align=center;verticalAlign=middle;whiteSpace=wrap;rounded=0;fontSize=9;fontColor=#A680B8;" parent="EH1okrl17HNzEjOL1Jwx-69" vertex="1">
          <mxGeometry y="41" width="40" height="20" as="geometry" />
        </mxCell>
        <mxCell id="EH1okrl17HNzEjOL1Jwx-42" value="&lt;font style=&quot;font-size: 12px&quot;&gt;$t1&lt;/font&gt;" style="text;html=1;strokeColor=none;fillColor=none;align=center;verticalAlign=middle;whiteSpace=wrap;rounded=0;fontSize=9;fontColor=#A680B8;" parent="EH1okrl17HNzEjOL1Jwx-69" vertex="1">
          <mxGeometry x="32" y="41" width="40" height="20" as="geometry" />
        </mxCell>
        <mxCell id="EH1okrl17HNzEjOL1Jwx-43" value="&lt;font style=&quot;font-size: 12px&quot;&gt;$t2&lt;/font&gt;" style="text;html=1;strokeColor=none;fillColor=none;align=center;verticalAlign=middle;whiteSpace=wrap;rounded=0;fontSize=9;fontColor=#A680B8;" parent="EH1okrl17HNzEjOL1Jwx-69" vertex="1">
          <mxGeometry x="61" y="41" width="40" height="20" as="geometry" />
        </mxCell>
        <mxCell id="EH1okrl17HNzEjOL1Jwx-44" value="&lt;font style=&quot;font-size: 12px&quot;&gt;$t3&lt;/font&gt;" style="text;html=1;strokeColor=none;fillColor=none;align=center;verticalAlign=middle;whiteSpace=wrap;rounded=0;fontSize=9;fontColor=#A680B8;" parent="EH1okrl17HNzEjOL1Jwx-69" vertex="1">
          <mxGeometry x="96" y="41" width="40" height="20" as="geometry" />
        </mxCell>
        <mxCell id="EH1okrl17HNzEjOL1Jwx-45" value="&lt;span style=&quot;font-size: 12px&quot;&gt;$t4&lt;/span&gt;" style="text;html=1;strokeColor=none;fillColor=none;align=center;verticalAlign=middle;whiteSpace=wrap;rounded=0;fontSize=9;fontColor=#A680B8;" parent="EH1okrl17HNzEjOL1Jwx-69" vertex="1">
          <mxGeometry x="126" y="41" width="40" height="20" as="geometry" />
        </mxCell>
        <mxCell id="EH1okrl17HNzEjOL1Jwx-46" value="&lt;span style=&quot;font-size: 12px&quot;&gt;$t5&lt;/span&gt;" style="text;html=1;strokeColor=none;fillColor=none;align=center;verticalAlign=middle;whiteSpace=wrap;rounded=0;fontSize=9;fontColor=#A680B8;" parent="EH1okrl17HNzEjOL1Jwx-69" vertex="1">
          <mxGeometry x="158" y="41" width="40" height="20" as="geometry" />
        </mxCell>
        <mxCell id="EH1okrl17HNzEjOL1Jwx-47" value="&lt;span style=&quot;font-size: 12px&quot;&gt;$t6&lt;/span&gt;" style="text;html=1;strokeColor=none;fillColor=none;align=center;verticalAlign=middle;whiteSpace=wrap;rounded=0;fontSize=9;fontColor=#A680B8;" parent="EH1okrl17HNzEjOL1Jwx-69" vertex="1">
          <mxGeometry x="186.5" y="41" width="40" height="20" as="geometry" />
        </mxCell>
        <mxCell id="EH1okrl17HNzEjOL1Jwx-48" value="&lt;span style=&quot;font-size: 12px&quot;&gt;$t7&lt;/span&gt;" style="text;html=1;strokeColor=none;fillColor=none;align=center;verticalAlign=middle;whiteSpace=wrap;rounded=0;fontSize=9;fontColor=#A680B8;" parent="EH1okrl17HNzEjOL1Jwx-69" vertex="1">
          <mxGeometry x="218" y="41" width="40" height="20" as="geometry" />
        </mxCell>
        <mxCell id="EH1okrl17HNzEjOL1Jwx-49" value="&lt;span style=&quot;font-size: 12px&quot;&gt;$s0&lt;/span&gt;" style="text;html=1;strokeColor=none;fillColor=none;align=center;verticalAlign=middle;whiteSpace=wrap;rounded=0;fontSize=9;fontColor=#EA6B66;" parent="EH1okrl17HNzEjOL1Jwx-69" vertex="1">
          <mxGeometry x="1" y="78" width="40" height="20" as="geometry" />
        </mxCell>
        <mxCell id="EH1okrl17HNzEjOL1Jwx-50" value="&lt;font style=&quot;font-size: 12px&quot;&gt;$s1&lt;/font&gt;" style="text;html=1;strokeColor=none;fillColor=none;align=center;verticalAlign=middle;whiteSpace=wrap;rounded=0;fontSize=9;fontColor=#EA6B66;" parent="EH1okrl17HNzEjOL1Jwx-69" vertex="1">
          <mxGeometry x="33" y="78" width="39" height="20" as="geometry" />
        </mxCell>
        <mxCell id="EH1okrl17HNzEjOL1Jwx-51" value="&lt;font style=&quot;font-size: 12px&quot;&gt;$s2&lt;/font&gt;" style="text;html=1;strokeColor=none;fillColor=none;align=center;verticalAlign=middle;whiteSpace=wrap;rounded=0;fontSize=9;fontColor=#EA6B66;" parent="EH1okrl17HNzEjOL1Jwx-69" vertex="1">
          <mxGeometry x="62" y="78" width="40" height="20" as="geometry" />
        </mxCell>
        <mxCell id="EH1okrl17HNzEjOL1Jwx-52" value="&lt;font style=&quot;font-size: 12px&quot;&gt;$s3&lt;/font&gt;" style="text;html=1;strokeColor=none;fillColor=none;align=center;verticalAlign=middle;whiteSpace=wrap;rounded=0;fontSize=9;fontColor=#EA6B66;" parent="EH1okrl17HNzEjOL1Jwx-69" vertex="1">
          <mxGeometry x="97" y="78" width="40" height="20" as="geometry" />
        </mxCell>
        <mxCell id="EH1okrl17HNzEjOL1Jwx-53" value="&lt;span style=&quot;font-size: 12px&quot;&gt;$s4&lt;/span&gt;" style="text;html=1;strokeColor=none;fillColor=none;align=center;verticalAlign=middle;whiteSpace=wrap;rounded=0;fontSize=9;fontColor=#EA6B66;" parent="EH1okrl17HNzEjOL1Jwx-69" vertex="1">
          <mxGeometry x="127" y="78" width="40" height="20" as="geometry" />
        </mxCell>
        <mxCell id="EH1okrl17HNzEjOL1Jwx-54" value="&lt;span style=&quot;font-size: 12px&quot;&gt;$s5&lt;/span&gt;" style="text;html=1;strokeColor=none;fillColor=none;align=center;verticalAlign=middle;whiteSpace=wrap;rounded=0;fontSize=9;fontColor=#EA6B66;" parent="EH1okrl17HNzEjOL1Jwx-69" vertex="1">
          <mxGeometry x="157" y="78" width="44" height="20" as="geometry" />
        </mxCell>
        <mxCell id="EH1okrl17HNzEjOL1Jwx-55" value="&lt;span style=&quot;font-size: 12px&quot;&gt;$s6&lt;/span&gt;" style="text;html=1;strokeColor=none;fillColor=none;align=center;verticalAlign=middle;whiteSpace=wrap;rounded=0;fontSize=9;fontColor=#EA6B66;" parent="EH1okrl17HNzEjOL1Jwx-69" vertex="1">
          <mxGeometry x="187.5" y="78" width="40" height="20" as="geometry" />
        </mxCell>
        <mxCell id="EH1okrl17HNzEjOL1Jwx-56" value="&lt;span style=&quot;font-size: 12px&quot;&gt;$s7&lt;/span&gt;" style="text;html=1;strokeColor=none;fillColor=none;align=center;verticalAlign=middle;whiteSpace=wrap;rounded=0;fontSize=9;fontColor=#EA6B66;" parent="EH1okrl17HNzEjOL1Jwx-69" vertex="1">
          <mxGeometry x="219" y="78" width="40" height="20" as="geometry" />
        </mxCell>
        <mxCell id="EH1okrl17HNzEjOL1Jwx-57" value="&lt;span style=&quot;font-size: 12px&quot;&gt;$t8&lt;/span&gt;" style="text;html=1;strokeColor=none;fillColor=none;align=center;verticalAlign=middle;whiteSpace=wrap;rounded=0;fontSize=9;fontColor=#A680B8;" parent="EH1okrl17HNzEjOL1Jwx-69" vertex="1">
          <mxGeometry y="112" width="40" height="20" as="geometry" />
        </mxCell>
        <mxCell id="EH1okrl17HNzEjOL1Jwx-58" value="&lt;font style=&quot;font-size: 12px&quot;&gt;$t9&lt;/font&gt;" style="text;html=1;strokeColor=none;fillColor=none;align=center;verticalAlign=middle;whiteSpace=wrap;rounded=0;fontSize=9;fontColor=#A680B8;" parent="EH1okrl17HNzEjOL1Jwx-69" vertex="1">
          <mxGeometry x="32" y="112" width="39" height="20" as="geometry" />
        </mxCell>
        <mxCell id="EH1okrl17HNzEjOL1Jwx-59" value="&lt;font style=&quot;font-size: 12px&quot;&gt;$k0&lt;/font&gt;" style="text;html=1;strokeColor=none;fillColor=none;align=center;verticalAlign=middle;whiteSpace=wrap;rounded=0;fontSize=9;fontColor=#67AB9F;" parent="EH1okrl17HNzEjOL1Jwx-69" vertex="1">
          <mxGeometry x="61" y="112" width="40" height="20" as="geometry" />
        </mxCell>
        <mxCell id="EH1okrl17HNzEjOL1Jwx-60" value="&lt;font style=&quot;font-size: 12px&quot;&gt;$k1&lt;/font&gt;" style="text;html=1;strokeColor=none;fillColor=none;align=center;verticalAlign=middle;whiteSpace=wrap;rounded=0;fontSize=9;fontColor=#67AB9F;" parent="EH1okrl17HNzEjOL1Jwx-69" vertex="1">
          <mxGeometry x="96" y="112" width="40" height="20" as="geometry" />
        </mxCell>
        <mxCell id="EH1okrl17HNzEjOL1Jwx-61" value="&lt;span style=&quot;font-size: 12px&quot;&gt;$gp&lt;/span&gt;" style="text;html=1;strokeColor=none;fillColor=none;align=center;verticalAlign=middle;whiteSpace=wrap;rounded=0;fontSize=9;" parent="EH1okrl17HNzEjOL1Jwx-69" vertex="1">
          <mxGeometry x="126" y="112" width="40" height="20" as="geometry" />
        </mxCell>
        <mxCell id="EH1okrl17HNzEjOL1Jwx-62" value="&lt;span style=&quot;font-size: 12px&quot;&gt;$sp&lt;/span&gt;" style="text;html=1;strokeColor=none;fillColor=none;align=center;verticalAlign=middle;whiteSpace=wrap;rounded=0;fontSize=9;" parent="EH1okrl17HNzEjOL1Jwx-69" vertex="1">
          <mxGeometry x="158" y="112" width="40" height="20" as="geometry" />
        </mxCell>
        <mxCell id="EH1okrl17HNzEjOL1Jwx-63" value="&lt;span style=&quot;font-size: 12px&quot;&gt;$fp&lt;/span&gt;" style="text;html=1;strokeColor=none;fillColor=none;align=center;verticalAlign=middle;whiteSpace=wrap;rounded=0;fontSize=9;" parent="EH1okrl17HNzEjOL1Jwx-69" vertex="1">
          <mxGeometry x="186.5" y="112" width="40" height="20" as="geometry" />
        </mxCell>
        <mxCell id="EH1okrl17HNzEjOL1Jwx-64" value="&lt;span style=&quot;font-size: 12px&quot;&gt;$ra&lt;/span&gt;" style="text;html=1;strokeColor=none;fillColor=none;align=center;verticalAlign=middle;whiteSpace=wrap;rounded=0;fontSize=9;" parent="EH1okrl17HNzEjOL1Jwx-69" vertex="1">
          <mxGeometry x="218" y="112" width="40" height="20" as="geometry" />
        </mxCell>
        <mxCell id="EH1okrl17HNzEjOL1Jwx-10" value="REGISTERS" style="text;html=1;strokeColor=none;fillColor=none;align=center;verticalAlign=middle;whiteSpace=wrap;rounded=0;fontStyle=1" parent="EH1okrl17HNzEjOL1Jwx-70" vertex="1">
          <mxGeometry x="230" y="176" width="90" height="20" as="geometry" />
        </mxCell>
        <mxCell id="JjzSYra-wFmh_ooPUgK7-69" style="edgeStyle=orthogonalEdgeStyle;rounded=0;orthogonalLoop=1;jettySize=auto;html=1;exitX=1;exitY=0.5;exitDx=0;exitDy=0;entryX=0.5;entryY=0;entryDx=0;entryDy=0;targetPerimeterSpacing=0;strokeWidth=1;fontSize=10;fontColor=#000000;opacity=80;" parent="1" source="EH1okrl17HNzEjOL1Jwx-3" target="JjzSYra-wFmh_ooPUgK7-64" edge="1">
          <mxGeometry relative="1" as="geometry" />
        </mxCell>
        <mxCell id="NVH_tbHtY971mTJiLyPO-3" value="CONTROLS" style="edgeLabel;html=1;align=center;verticalAlign=middle;resizable=0;points=[];" vertex="1" connectable="0" parent="JjzSYra-wFmh_ooPUgK7-69">
          <mxGeometry x="-0.2544" relative="1" as="geometry">
            <mxPoint as="offset" />
          </mxGeometry>
        </mxCell>
        <mxCell id="EH1okrl17HNzEjOL1Jwx-3" value="" style="rounded=0;whiteSpace=wrap;html=1;fillColor=none;" parent="1" vertex="1">
          <mxGeometry x="375" y="295" width="221" height="85" as="geometry" />
        </mxCell>
        <mxCell id="EH1okrl17HNzEjOL1Jwx-4" value="MASTER CONTROL UNIT" style="text;html=1;strokeColor=none;fillColor=none;align=center;verticalAlign=middle;whiteSpace=wrap;rounded=0;fontStyle=1" parent="1" vertex="1">
          <mxGeometry x="400.5" y="327.5" width="170" height="20" as="geometry" />
        </mxCell>
        <mxCell id="EH1okrl17HNzEjOL1Jwx-2" value="&lt;font style=&quot;font-size: 29px&quot;&gt;T501 CPU&lt;/font&gt;" style="text;html=1;resizable=0;autosize=1;align=right;verticalAlign=middle;points=[];fillColor=none;strokeColor=none;rounded=0;fontStyle=1" parent="1" vertex="1">
          <mxGeometry x="175" y="740" width="150" height="20" as="geometry" />
        </mxCell>
        <mxCell id="JjzSYra-wFmh_ooPUgK7-15" value="AVALON&amp;nbsp;&lt;span style=&quot;font-size: 11px ; font-weight: bold ; text-align: left&quot;&gt;®&lt;/span&gt;&lt;br&gt;&amp;nbsp;BUS INTERFACE" style="rounded=0;whiteSpace=wrap;html=1;fillColor=#dae8fc;strokeColor=#6c8ebf;opacity=80;" parent="1" vertex="1">
          <mxGeometry x="160" y="160" width="700" height="40" as="geometry" />
        </mxCell>
        <mxCell id="JjzSYra-wFmh_ooPUgK7-28" value="" style="rounded=0;whiteSpace=wrap;html=1;fontSize=9;opacity=80;align=right;fillColor=#dae8fc;strokeColor=none;" parent="1" vertex="1">
          <mxGeometry x="190" y="261" width="20" height="379" as="geometry" />
        </mxCell>
        <mxCell id="JjzSYra-wFmh_ooPUgK7-29" value="" style="shape=flexArrow;endArrow=classic;html=1;strokeWidth=1;fontSize=9;fontColor=#004C99;fillColor=#dae8fc;entryX=0;entryY=0.5;entryDx=0;entryDy=0;opacity=80;strokeColor=none;width=18.523489932885905;endSize=6.914093959731543;exitX=0.976;exitY=0.98;exitDx=0;exitDy=0;exitPerimeter=0;" parent="1" edge="1">
          <mxGeometry width="50" height="50" relative="1" as="geometry">
            <mxPoint x="209.51999999999998" y="630.2" as="sourcePoint" />
            <mxPoint x="298.99999999999994" y="630" as="targetPoint" />
          </mxGeometry>
        </mxCell>
        <mxCell id="JjzSYra-wFmh_ooPUgK7-30" value="" style="shape=flexArrow;endArrow=classic;html=1;strokeWidth=1;fontSize=9;fontColor=#004C99;fillColor=#dae8fc;entryX=0;entryY=0.5;entryDx=0;entryDy=0;opacity=80;strokeColor=none;width=38.285714285714285;endSize=7.92;exitX=0.86;exitY=1.004;exitDx=0;exitDy=0;exitPerimeter=0;" parent="1" source="JjzSYra-wFmh_ooPUgK7-35" edge="1" target="EH1okrl17HNzEjOL1Jwx-3">
          <mxGeometry width="50" height="50" relative="1" as="geometry">
            <mxPoint x="220" y="338" as="sourcePoint" />
            <mxPoint x="300" y="361" as="targetPoint" />
          </mxGeometry>
        </mxCell>
        <mxCell id="JjzSYra-wFmh_ooPUgK7-31" value="" style="shape=flexArrow;endArrow=classic;html=1;strokeWidth=1;fontSize=9;fontColor=#004C99;fillColor=#dae8fc;opacity=80;strokeColor=none;width=20.46511627906977;endSize=6.6465116279069765;exitX=0.488;exitY=0.002;exitDx=0;exitDy=0;entryX=0.057;entryY=0.068;entryDx=0;entryDy=0;entryPerimeter=0;exitPerimeter=0;" parent="1" source="JjzSYra-wFmh_ooPUgK7-28" target="EH1okrl17HNzEjOL1Jwx-92" edge="1">
          <mxGeometry width="50" height="50" relative="1" as="geometry">
            <mxPoint x="219.31999999999994" y="231.03999999999996" as="sourcePoint" />
            <mxPoint x="199" y="201" as="targetPoint" />
          </mxGeometry>
        </mxCell>
        <mxCell id="JjzSYra-wFmh_ooPUgK7-35" value="INTERNAL MEMORY/DATA BUS" style="text;html=1;strokeColor=none;fillColor=none;align=center;verticalAlign=middle;whiteSpace=wrap;rounded=0;fontSize=11;opacity=80;rotation=-90;" parent="1" vertex="1">
          <mxGeometry x="95" y="404" width="210" height="19" as="geometry" />
        </mxCell>
        <mxCell id="JjzSYra-wFmh_ooPUgK7-41" value="" style="shape=flexArrow;endArrow=classic;startArrow=classic;html=1;strokeWidth=1;fontSize=9;fontColor=#7EA6E0;opacity=80;exitX=0.327;exitY=-0.002;exitDx=0;exitDy=0;exitPerimeter=0;entryX=0.5;entryY=1.017;entryDx=0;entryDy=0;entryPerimeter=0;fillColor=#e1d5e7;strokeColor=#9673a6;" parent="1" edge="1">
          <mxGeometry width="50" height="50" relative="1" as="geometry">
            <mxPoint x="424.8699999999999" y="157.76" as="sourcePoint" />
            <mxPoint x="425" y="90.01999999999998" as="targetPoint" />
          </mxGeometry>
        </mxCell>
        <mxCell id="JjzSYra-wFmh_ooPUgK7-42" value="" style="shape=flexArrow;endArrow=classic;startArrow=classic;html=1;strokeWidth=1;fontSize=9;fontColor=#7EA6E0;opacity=80;entryX=0.5;entryY=1;entryDx=0;entryDy=0;exitX=0.5;exitY=0;exitDx=0;exitDy=0;fillColor=#e1d5e7;strokeColor=#9673a6;" parent="1" edge="1">
          <mxGeometry width="50" height="50" relative="1" as="geometry">
            <mxPoint x="565" y="159" as="sourcePoint" />
            <mxPoint x="565" y="89" as="targetPoint" />
          </mxGeometry>
        </mxCell>
        <mxCell id="JjzSYra-wFmh_ooPUgK7-43" value="" style="shape=flexArrow;endArrow=classic;startArrow=classic;html=1;strokeWidth=1;fontSize=9;fontColor=#7EA6E0;opacity=80;exitX=0.327;exitY=-0.002;exitDx=0;exitDy=0;exitPerimeter=0;entryX=0.5;entryY=1.017;entryDx=0;entryDy=0;entryPerimeter=0;fillColor=#e1d5e7;strokeColor=#9673a6;" parent="1" edge="1">
          <mxGeometry width="50" height="50" relative="1" as="geometry">
            <mxPoint x="703.25" y="157.618" as="sourcePoint" />
            <mxPoint x="703.38" y="89.99999999999999" as="targetPoint" />
          </mxGeometry>
        </mxCell>
        <mxCell id="JjzSYra-wFmh_ooPUgK7-54" value="&lt;font color=&quot;#000000&quot; style=&quot;font-size: 11px;&quot;&gt;e.g. RAM&lt;/font&gt;" style="text;html=1;strokeColor=none;fillColor=none;align=center;verticalAlign=middle;whiteSpace=wrap;rounded=0;fontSize=11;fontColor=#7EA6E0;opacity=80;fontStyle=1" parent="1" vertex="1">
          <mxGeometry x="406" y="50" width="40" height="20" as="geometry" />
        </mxCell>
        <mxCell id="JjzSYra-wFmh_ooPUgK7-55" value="&lt;font color=&quot;#000000&quot; style=&quot;font-size: 11px&quot;&gt;e.g. DISK A&lt;/font&gt;" style="text;html=1;strokeColor=none;fillColor=none;align=center;verticalAlign=middle;whiteSpace=wrap;rounded=0;fontSize=11;fontColor=#7EA6E0;opacity=80;fontStyle=1" parent="1" vertex="1">
          <mxGeometry x="542.88" y="50" width="44.25" height="20" as="geometry" />
        </mxCell>
        <mxCell id="JjzSYra-wFmh_ooPUgK7-56" value="&lt;font color=&quot;#000000&quot; style=&quot;font-size: 11px;&quot;&gt;e.g.&lt;br style=&quot;font-size: 11px;&quot;&gt;DISK B&lt;/font&gt;" style="text;html=1;strokeColor=none;fillColor=none;align=center;verticalAlign=middle;whiteSpace=wrap;rounded=0;fontSize=11;fontColor=#7EA6E0;opacity=80;fontStyle=1" parent="1" vertex="1">
          <mxGeometry x="683.75" y="50" width="40" height="20" as="geometry" />
        </mxCell>
        <mxCell id="JjzSYra-wFmh_ooPUgK7-65" value="" style="group" parent="1" vertex="1" connectable="0">
          <mxGeometry x="753" y="490" width="160" height="260" as="geometry" />
        </mxCell>
        <mxCell id="NVH_tbHtY971mTJiLyPO-6" value="" style="group" vertex="1" connectable="0" parent="JjzSYra-wFmh_ooPUgK7-65">
          <mxGeometry x="-83" y="-90" width="160" height="260" as="geometry" />
        </mxCell>
        <mxCell id="JjzSYra-wFmh_ooPUgK7-64" value="" style="rounded=0;whiteSpace=wrap;html=1;fontSize=8;fontColor=#000000;opacity=80;align=center;fillColor=none;" parent="NVH_tbHtY971mTJiLyPO-6" vertex="1">
          <mxGeometry width="160" height="260" as="geometry" />
        </mxCell>
        <mxCell id="EH1okrl17HNzEjOL1Jwx-6" value="" style="shape=trapezoid;perimeter=trapezoidPerimeter;whiteSpace=wrap;html=1;fixedSize=1;fillColor=none;rotation=90;" parent="NVH_tbHtY971mTJiLyPO-6" vertex="1">
          <mxGeometry x="22" y="41" width="120" height="60" as="geometry" />
        </mxCell>
        <mxCell id="EH1okrl17HNzEjOL1Jwx-7" value="&lt;b&gt;ALU&lt;/b&gt;" style="text;html=1;strokeColor=none;fillColor=none;align=center;verticalAlign=middle;whiteSpace=wrap;rounded=0;" parent="NVH_tbHtY971mTJiLyPO-6" vertex="1">
          <mxGeometry x="62.00000000000001" y="61" width="40" height="20" as="geometry" />
        </mxCell>
        <mxCell id="EH1okrl17HNzEjOL1Jwx-12" value="" style="rounded=0;whiteSpace=wrap;html=1;fillColor=none;" parent="NVH_tbHtY971mTJiLyPO-6" vertex="1">
          <mxGeometry x="29" y="140" width="102" height="47" as="geometry" />
        </mxCell>
        <mxCell id="EH1okrl17HNzEjOL1Jwx-13" value="MULTIPLIER" style="text;html=1;strokeColor=none;fillColor=none;align=center;verticalAlign=middle;whiteSpace=wrap;rounded=0;fontStyle=1" parent="NVH_tbHtY971mTJiLyPO-6" vertex="1">
          <mxGeometry x="35.00000000000012" y="153.5" width="90" height="20" as="geometry" />
        </mxCell>
        <mxCell id="NVH_tbHtY971mTJiLyPO-1" value="" style="rounded=0;whiteSpace=wrap;html=1;fillColor=none;" vertex="1" parent="NVH_tbHtY971mTJiLyPO-6">
          <mxGeometry x="29" y="200" width="102" height="47" as="geometry" />
        </mxCell>
        <mxCell id="NVH_tbHtY971mTJiLyPO-2" value="DIVIDER" style="text;html=1;strokeColor=none;fillColor=none;align=center;verticalAlign=middle;whiteSpace=wrap;rounded=0;fontStyle=1" vertex="1" parent="NVH_tbHtY971mTJiLyPO-6">
          <mxGeometry x="35.000000000000114" y="213.5" width="90" height="20" as="geometry" />
        </mxCell>
        <mxCell id="JjzSYra-wFmh_ooPUgK7-76" value="" style="endArrow=classic;html=1;strokeWidth=1;fontSize=10;fontColor=#000000;opacity=80;exitX=0.374;exitY=1.006;exitDx=0;exitDy=0;entryX=0.496;entryY=-0.009;entryDx=0;entryDy=0;exitPerimeter=0;entryPerimeter=0;" parent="1" source="EH1okrl17HNzEjOL1Jwx-3" target="EH1okrl17HNzEjOL1Jwx-67" edge="1">
          <mxGeometry relative="1" as="geometry">
            <mxPoint x="490" y="460" as="sourcePoint" />
            <mxPoint x="650" y="460" as="targetPoint" />
          </mxGeometry>
        </mxCell>
        <mxCell id="JjzSYra-wFmh_ooPUgK7-77" value="CONTROLS" style="edgeLabel;resizable=0;html=1;align=center;verticalAlign=middle;" parent="JjzSYra-wFmh_ooPUgK7-76" connectable="0" vertex="1">
          <mxGeometry relative="1" as="geometry" />
        </mxCell>
        <mxCell id="ETZFxEWqiow0xpTX8b9j-3" value="" style="endArrow=classic;html=1;fontColor=#6382B0;exitX=0.5;exitY=0;exitDx=0;exitDy=0;entryX=0.464;entryY=0.071;entryDx=0;entryDy=0;entryPerimeter=0;" parent="1" source="EH1okrl17HNzEjOL1Jwx-3" edge="1" target="EH1okrl17HNzEjOL1Jwx-92">
          <mxGeometry relative="1" as="geometry">
            <mxPoint x="490" y="410" as="sourcePoint" />
            <mxPoint x="512" y="203" as="targetPoint" />
          </mxGeometry>
        </mxCell>
        <mxCell id="ETZFxEWqiow0xpTX8b9j-4" value="CONTROLS AVALON&amp;nbsp;&lt;span style=&quot;font-weight: bold ; text-align: left ; background-color: rgb(248 , 249 , 250)&quot;&gt;®&lt;/span&gt;&lt;br&gt;&amp;nbsp;INTERFACE" style="edgeLabel;resizable=0;html=1;align=center;verticalAlign=middle;" parent="ETZFxEWqiow0xpTX8b9j-3" connectable="0" vertex="1">
          <mxGeometry relative="1" as="geometry" />
        </mxCell>
        <mxCell id="JjzSYra-wFmh_ooPUgK7-80" value="" style="rounded=0;whiteSpace=wrap;html=1;fillColor=#f5f5f5;fontSize=10;fontColor=#333333;opacity=40;align=center;dashed=1;strokeWidth=3;strokeColor=#666666;" parent="1" vertex="1">
          <mxGeometry x="160" y="10" width="700" height="122" as="geometry" />
        </mxCell>
        <mxCell id="JjzSYra-wFmh_ooPUgK7-81" value="EXTERNAL&amp;nbsp;AVALON ® COMPATIBLE DEVICES" style="text;html=1;strokeColor=none;fillColor=none;align=left;verticalAlign=middle;whiteSpace=wrap;rounded=0;dashed=1;fontSize=11;fontColor=#000000;opacity=40;fontStyle=1" parent="1" vertex="1">
          <mxGeometry x="175" y="10" width="130" height="60" as="geometry" />
        </mxCell>
        <mxCell id="NVH_tbHtY971mTJiLyPO-7" value="" style="html=1;shadow=0;dashed=0;align=center;verticalAlign=middle;shape=mxgraph.arrows2.bendArrow;dy=10.21;dx=34.71;notch=0;arrowHead=45.86;rounded=0;fontSize=11;rotation=-90;fillColor=#dae8fc;strokeColor=none;" vertex="1" parent="1">
          <mxGeometry x="473" y="623" width="66" height="140" as="geometry" />
        </mxCell>
        <mxCell id="NVH_tbHtY971mTJiLyPO-9" value="" style="html=1;shadow=0;dashed=0;align=center;verticalAlign=middle;shape=mxgraph.arrows2.bendArrow;dy=10.21;dx=34.71;notch=0;arrowHead=45.86;rounded=0;fontSize=11;rotation=-90;fillColor=#dae8fc;strokeColor=none;flipH=0;flipV=1;" vertex="1" parent="1">
          <mxGeometry x="639.25" y="591.5" width="66" height="203" as="geometry" />
        </mxCell>
        <mxCell id="JjzSYra-wFmh_ooPUgK7-63" value="PROVIDE ARITHMETIC&amp;nbsp;OPERATIONS" style="text;html=1;strokeColor=none;fillColor=none;align=center;verticalAlign=middle;whiteSpace=wrap;rounded=0;fontSize=11;opacity=80;rotation=0;" parent="1" vertex="1">
          <mxGeometry x="390" y="705" width="425.25" height="20" as="geometry" />
        </mxCell>
      </root>
    </mxGraphModel>
  </diagram>
</mxfile>
